<svg width="25" height="21" viewBox="0 0 25 21" fill="none" xmlns="http://www.w3.org/2000/svg">
<path d="M1.67123 4.35325C2.78538 3.00753 4.30512 1.94914 6.22068 1.16853C8.13624 0.387913 10.2277 0 12.5 0C14.7674 0 16.8638 0.387913 18.7793 1.16853C20.6949 1.94914 22.2097 3.01231 23.3239 4.35325C24.4429 5.69897 25 7.16442 25 8.7496C25 10.1193 24.5797 11.3979 23.7392 12.5952C22.8987 13.7877 21.7455 14.7934 20.2844 15.6027C20.387 15.9667 20.5092 16.3115 20.646 16.642C20.7877 16.9724 20.9099 17.2406 21.0223 17.4465C21.1347 17.6572 21.2862 17.8871 21.4767 18.1457C21.6673 18.3995 21.809 18.5815 21.9068 18.6869C22.0045 18.7922 22.1658 18.9647 22.3905 19.2041C22.6153 19.4436 22.757 19.6016 22.8206 19.6782C22.8303 19.683 22.8694 19.7213 22.933 19.8027C22.9965 19.8794 23.0307 19.9177 23.0307 19.9177L23.1138 20.0422C23.1626 20.1092 23.1822 20.1523 23.1773 20.1715C23.1724 20.1907 23.1822 20.2338 23.2066 20.3104C23.231 20.3822 23.2262 20.4397 23.2017 20.4732V20.4876C23.1626 20.6408 23.0893 20.7701 22.9769 20.8659C22.8645 20.9617 22.7375 21.0096 22.6007 21.0096H22.5323C21.9263 20.9377 21.3986 20.8372 20.9441 20.7079C18.5057 20.0949 16.3702 18.9934 14.528 17.3986C13.8292 17.4705 13.1548 17.5088 12.5049 17.5088C10.2375 17.5088 8.14113 17.1209 6.22557 16.3403C4.31001 15.5596 2.79515 14.5013 1.67611 13.1555C0.561963 11.8098 -2.86335e-07 10.3444 -2.86335e-07 8.75918C-2.86335e-07 7.16442 0.557076 5.69897 1.67123 4.35325ZM3.24472 12.236C4.21716 13.3136 5.52678 14.166 7.17846 14.7982C8.83014 15.4303 10.604 15.7464 12.5 15.7464C13.0668 15.7464 13.6728 15.7081 14.3129 15.6363L15.1095 15.5548L15.7105 16.0769C16.854 17.0634 18.1343 17.8392 19.5465 18.4139C19.1165 17.6764 18.794 16.891 18.5692 16.0625L18.1929 14.7503L19.4048 14.0655C20.6167 13.395 21.55 12.5952 22.2146 11.6709C22.8792 10.7466 23.2115 9.77446 23.2115 8.7496C23.2115 7.49966 22.7277 6.34071 21.7553 5.26317C20.7828 4.18563 19.4732 3.33318 17.8215 2.70103C16.1699 2.06887 14.396 1.75279 12.5 1.75279C10.604 1.75279 8.83014 2.06887 7.17846 2.70103C5.52678 3.33318 4.21716 4.19042 3.24472 5.26317C2.27228 6.34071 1.78851 7.49966 1.78851 8.7496C1.78851 9.99954 2.27228 11.1633 3.24472 12.236Z" fill="#ADAAAA"/>
</svg>
