<svg width="24" height="26" viewBox="0 0 24 26" fill="none" xmlns="http://www.w3.org/2000/svg">
<path d="M0.766249 11.4704C0.257241 12.2421 6.48201e-07 13.0903 6.48201e-07 14.0152C6.48201e-07 15.0878 0.394072 16.0181 1.18769 16.8116C1.9813 17.6051 2.91722 17.9992 4.00091 17.9992H6.75393C6.25587 19.028 6.00411 20.0295 6.00411 20.9981C6.00411 22.2185 6.18472 23.1871 6.55143 23.904C6.91813 24.6209 7.44903 25.1518 8.14413 25.4911C8.83922 25.8304 9.62189 26 10.4976 26C11.0285 26 11.4992 25.8085 11.9042 25.4199C12.353 24.9821 12.6759 24.4184 12.873 23.7344C13.07 23.0448 13.2287 22.3881 13.3491 21.7588C13.4696 21.1294 13.6556 20.6807 13.9019 20.4235C14.4109 19.8708 14.9692 19.2031 15.5767 18.426C16.6276 17.0634 17.3446 16.2534 17.7168 16.0017H22.0023C22.5551 16.0017 23.0258 15.8047 23.4144 15.4161C23.803 15.0221 24 14.5515 24 13.9987V4.00042C24 3.44769 23.803 2.97706 23.4144 2.58851C23.0258 2.19996 22.5496 2.00295 22.0023 2.00295H17.5033C17.2734 2.00295 16.5564 1.79499 15.3469 1.37908C14.0661 0.93033 12.9387 0.591032 11.9644 0.355713C10.9902 0.120394 10.005 0.00547164 9.00342 0.00547164H7.55302H6.98928C5.52246 0.00547164 4.34025 0.426857 3.44265 1.26415C2.54504 2.10145 2.10171 3.24521 2.11266 4.69543C1.48871 5.49989 1.17674 6.42475 1.17674 7.47548C1.17674 7.70532 1.19316 7.9297 1.226 8.1486C0.831927 8.84361 0.629419 9.59882 0.629419 10.3978C0.623946 10.7645 0.667732 11.1257 0.766249 11.4704ZM20.2946 4.29594C20.4917 4.09893 20.727 4.00042 20.9952 4.00042C21.2634 4.00042 21.4987 4.09893 21.6958 4.29594C21.8928 4.49295 21.9913 4.72827 21.9913 5.00189C21.9913 5.27005 21.8928 5.50537 21.6958 5.70238C21.4987 5.89939 21.2634 5.99789 20.9952 5.99789C20.727 5.99789 20.4917 5.89939 20.2946 5.70238C20.0976 5.50537 19.9991 5.27005 19.9991 5.00189C19.9991 4.72827 20.0976 4.49295 20.2946 4.29594ZM2.33159 12.7346C2.55599 12.253 2.83512 12.0122 3.16899 12.0013C3.01026 11.8261 2.88438 11.5744 2.78039 11.257C2.6764 10.9396 2.62714 10.6495 2.62714 10.3923C2.62714 9.67544 2.9008 9.05157 3.45359 8.53168C3.2675 8.19785 3.17446 7.83667 3.17446 7.45359C3.17446 7.07051 3.2675 6.68743 3.44812 6.30436C3.62873 5.92675 3.8805 5.65313 4.19248 5.48348C4.13774 5.17154 4.11585 4.8815 4.11585 4.60787C4.11585 2.86761 5.11745 1.99747 7.11517 1.99747H9.00342C10.3662 1.99747 12.1505 2.37508 14.3453 3.13576C14.4 3.15765 14.5478 3.21238 14.7995 3.29994C15.0513 3.3875 15.2319 3.45317 15.3523 3.49695C15.4727 3.54073 15.6534 3.60093 15.8997 3.67754C16.146 3.75416 16.343 3.81435 16.4908 3.84719C16.644 3.8855 16.8137 3.91833 17.0052 3.95117C17.1968 3.984 17.361 4.00042 17.4978 4.00042H17.9959V13.9987H17.4978C17.3336 13.9987 17.1475 14.048 16.945 14.141C16.7425 14.2341 16.5345 14.3763 16.3211 14.5624C16.1076 14.7485 15.9051 14.9345 15.719 15.1151C15.533 15.2957 15.325 15.5256 15.0951 15.8047C14.8652 16.0783 14.6846 16.3027 14.5532 16.4668C14.4219 16.631 14.2577 16.8445 14.0607 17.1071C13.8636 17.3698 13.7432 17.523 13.6994 17.5778C13.1247 18.2837 12.7252 18.7598 12.4953 19.0006C12.0684 19.4494 11.7564 20.0185 11.5649 20.7135C11.3733 21.4085 11.2146 22.0598 11.0887 22.6727C10.9628 23.2856 10.7658 23.7289 10.4921 24.0025C9.49054 24.0025 8.82281 23.7563 8.49441 23.2692C8.16055 22.7822 7.99635 22.0269 7.99635 21.0036C7.99635 20.3907 8.24812 19.5534 8.74618 18.4972C9.24424 17.441 9.49601 16.6091 9.49601 16.0072H3.99544C3.47549 16.0072 3.01026 15.8047 2.60525 15.4052C2.20023 15.0057 1.99772 14.5405 1.99772 14.0042C1.99772 13.6375 2.10718 13.2107 2.33159 12.7346Z" fill="#ADAAAA"/>
</svg>
