<svg width="24" height="26" viewBox="0 0 24 26" fill="none" xmlns="http://www.w3.org/2000/svg">
<path d="M23.2338 14.5296C23.7428 13.7579 24 12.9097 24 11.9848C24 10.9122 23.6059 9.9819 22.8123 9.18838C22.0187 8.39486 21.0828 8.00084 19.9991 8.00084H17.2461C17.7441 6.97201 17.9959 5.97053 17.9959 5.00189C17.9959 3.78152 17.8153 2.81288 17.4486 2.09598C17.0819 1.37908 16.551 0.848243 15.8559 0.508946C15.1608 0.169649 14.3781 0 13.5024 0C12.9715 0 12.5008 0.191539 12.0958 0.580088C11.647 1.01789 11.3241 1.58156 11.127 2.26563C10.93 2.95517 10.7713 3.61187 10.6509 4.24121C10.5304 4.87055 10.3444 5.3193 10.0981 5.57651C9.58905 6.12924 9.03079 6.79688 8.42326 7.57398C7.37241 8.93664 6.65542 9.74658 6.28324 9.99832H1.99772C1.44493 9.99832 0.97423 10.1953 0.585633 10.5839C0.197035 10.9779 0 11.4485 0 12.0013V21.9996C0 22.5523 0.197035 23.0229 0.585633 23.4115C0.97423 23.8 1.4504 23.9971 1.99772 23.9971H6.49669C6.72657 23.9971 7.44356 24.205 8.65314 24.6209C9.93387 25.0697 11.0613 25.409 12.0356 25.6443C13.0098 25.8796 13.995 25.9945 14.9966 25.9945H16.447H17.0107C18.4775 25.9945 19.6597 25.5731 20.5574 24.7358C21.455 23.8985 21.8983 22.7548 21.8873 21.3046C22.5113 20.5001 22.8233 19.5752 22.8233 18.5245C22.8233 18.2947 22.8068 18.0703 22.774 17.8514C23.1681 17.1564 23.3706 16.4012 23.3706 15.6022C23.3761 15.2355 23.3323 14.8743 23.2338 14.5296ZM3.70536 21.7041C3.50832 21.9011 3.27298 21.9996 3.00479 21.9996C2.7366 21.9996 2.50125 21.9011 2.30422 21.7041C2.10718 21.5071 2.00867 21.2717 2.00867 20.9981C2.00867 20.73 2.10718 20.4946 2.30422 20.2976C2.50125 20.1006 2.7366 20.0021 3.00479 20.0021C3.27298 20.0021 3.50832 20.1006 3.70536 20.2976C3.90239 20.4946 4.00091 20.73 4.00091 20.9981C4.00091 21.2717 3.90239 21.5071 3.70536 21.7041ZM21.6684 13.2654C21.444 13.747 21.1649 13.9878 20.831 13.9987C20.9897 14.1739 21.1156 14.4256 21.2196 14.743C21.3236 15.0604 21.3729 15.3505 21.3729 15.6077C21.3729 16.3246 21.0992 16.9484 20.5464 17.4683C20.7325 17.8021 20.8255 18.1633 20.8255 18.5464C20.8255 18.9295 20.7325 19.3126 20.5519 19.6956C20.3713 20.0732 20.1195 20.3469 19.8075 20.5165C19.8623 20.8285 19.8841 21.1185 19.8841 21.3921C19.8841 23.1324 18.8826 24.0025 16.8848 24.0025H14.9966C13.6338 24.0025 11.8495 23.6249 9.65473 22.8642C9.6 22.8423 9.45222 22.7876 9.20046 22.7001C8.94869 22.6125 8.76807 22.5468 8.64766 22.5031C8.52725 22.4593 8.34664 22.3991 8.10034 22.3225C7.85405 22.2458 7.65701 22.1856 7.50924 22.1528C7.35599 22.1145 7.18632 22.0817 6.99475 22.0488C6.80319 22.016 6.639 21.9996 6.50217 21.9996H6.0041V12.0013H6.50217C6.66636 12.0013 6.85245 11.952 7.05496 11.859C7.25747 11.7659 7.46545 11.6237 7.67891 11.4376C7.89236 11.2515 8.09487 11.0655 8.28096 10.8849C8.46705 10.7043 8.67503 10.4744 8.9049 10.1953C9.13478 9.9217 9.31539 9.69733 9.44675 9.53315C9.57811 9.36898 9.7423 9.15555 9.93934 8.89286C10.1364 8.63018 10.2568 8.47695 10.3006 8.42223C10.8753 7.71627 11.2748 7.24016 11.5047 6.99937C11.9316 6.55062 12.2436 5.98148 12.4351 5.28647C12.6267 4.59145 12.7854 3.94022 12.9113 3.3273C13.0372 2.71438 13.2342 2.2711 13.5079 1.99747C14.5095 1.99747 15.1772 2.24374 15.5056 2.73079C15.8395 3.21785 16.0036 3.97306 16.0036 4.99642C16.0036 5.60935 15.7519 6.44664 15.2538 7.50284C14.7558 8.55904 14.504 9.39087 14.504 9.99284H20.0046C20.5245 9.99284 20.9897 10.1953 21.3948 10.5948C21.7998 10.9943 22.0023 11.4595 22.0023 11.9958C22.0023 12.3625 21.8928 12.7893 21.6684 13.2654Z" fill="#ADAAAA"/>
</svg>
